<svg width="103" height="103" viewBox="0 0 103 103" fill="none" xmlns="http://www.w3.org/2000/svg">
<path d="M68.5355 85.5817C87.5118 76.34 95.4522 53.5532 86.2709 34.686C77.0897 15.8188 54.2636 8.01582 35.2873 17.2576C16.311 26.4993 8.3706 49.2861 17.5518 68.1533C26.7331 87.0205 49.5592 94.8234 68.5355 85.5817Z" fill="#B9FF66"/>
<path d="M51.7177 90.347C47.6456 90.347 43.4951 89.7203 39.4622 88.3493C29.595 85.0589 21.6074 78.1648 16.987 68.8421C12.3667 59.5586 11.6619 49.0216 14.9901 39.1505C21.8815 18.8208 44.0433 7.73541 64.4432 14.512C74.3103 17.8023 82.298 24.6964 86.9183 34.0191C91.5386 43.3027 92.2434 53.8396 88.9152 63.7107C83.3552 80.0059 68.0455 90.347 51.7177 90.347ZM52.1093 14.2769C36.4864 14.2769 21.8423 24.148 16.5563 39.7381C13.3848 49.1783 14.0504 59.2452 18.4749 68.0979C22.8995 76.9897 30.5348 83.6096 39.9712 86.7433C59.4705 93.2065 80.6534 82.6303 87.2315 63.2015C90.4031 53.7613 89.7375 43.6944 85.313 34.8417C80.8884 25.9499 73.2531 19.33 63.8167 16.1963C59.9403 14.8645 55.9857 14.2769 52.1093 14.2769Z" fill="black"/>
<path d="M71.3751 45.2613C70.9835 54.7799 54.8907 77.029 51.0535 82.2387C50.6619 82.7871 49.8397 82.748 49.4873 82.1604C47.0596 78.2433 39.0328 65.0818 34.8432 54.4273C33.1595 50.1968 32.1024 46.3581 32.2198 43.6553C32.6505 32.8441 41.7737 24.4223 52.5805 24.8532C63.3874 25.3624 71.8058 34.4501 71.3751 45.2613Z" fill="black"/>
<path d="M58.1301 50.8267C61.6317 47.3236 61.6317 41.6441 58.1301 38.1411C54.6285 34.6381 48.9513 34.6381 45.4496 38.1411C41.948 41.6441 41.948 47.3237 45.4496 50.8267C48.9513 54.3297 54.6285 54.3297 58.1301 50.8267Z" fill="#B9FF66"/>
</svg>
