<svg width="100" height="99" viewBox="0 0 100 99" fill="none" xmlns="http://www.w3.org/2000/svg">
<path d="M66.7234 81.5974C84.6235 72.1937 91.5468 50.1159 82.1871 32.2852C72.8274 14.4545 50.729 7.62311 32.8289 17.0268C14.9289 26.4305 8.00551 48.5083 17.3652 66.339C26.7249 84.1697 48.8233 91.0011 66.7234 81.5974Z" fill="black"/>
<path d="M33.1043 41.2352C34.8271 38.8849 37.3722 37.4356 40.2697 37.1223C42.4624 36.8872 44.4985 37.3573 46.4171 38.5324C47.396 39.12 48.2574 39.8642 49.0796 40.7652C49.667 39.7075 50.3718 38.7674 51.194 37.984C52.7994 36.4172 54.718 35.5162 56.8715 35.2812C59.769 34.9678 62.5882 35.8296 64.7809 37.749C66.9344 39.6292 68.3049 42.3712 68.6573 45.4657C69.0097 48.6385 68.1482 51.6939 65.9555 55.0626C63.9978 58.0787 61.022 61.2124 57.5763 64.8945C56.4017 66.1479 55.0704 67.5581 53.7 69.0466C53.3476 69.4383 52.8386 69.7125 52.2904 69.7517C51.7422 69.83 51.2332 69.6733 50.7633 69.36C49.0796 68.1848 47.4743 67.0881 46.0647 66.1479C41.9142 63.3276 38.3119 60.899 35.7277 58.3921C32.8302 55.611 31.3423 52.7906 30.9899 49.6178C30.6767 46.5233 31.4206 43.5463 33.1043 41.2352Z" fill="white"/>
</svg>
