<svg width="500" height="294" viewBox="0 0 500 294" fill="none" xmlns="http://www.w3.org/2000/svg">
<path d="M278.664 95.5349C347.103 133.285 405.836 173.283 445.469 207.425C465.288 224.499 480.311 240.09 489.384 253.19C493.922 259.741 496.954 265.645 498.366 270.782C499.777 275.916 499.558 280.238 497.658 283.682C495.758 287.125 492.22 289.616 487.125 291.161C482.027 292.707 475.415 293.292 467.454 292.948C451.534 292.261 430.332 287.872 405.318 280.216C355.298 264.906 290.135 236.564 221.696 198.814C153.257 161.063 94.5229 121.065 54.8902 86.9228C35.0712 69.8494 20.0491 54.2579 10.9755 41.1583C6.43812 34.6076 3.40456 28.7028 1.99271 23.5664C0.581605 18.4325 0.801165 14.1109 2.70054 10.6672C4.60013 7.22337 8.13865 4.73176 13.234 3.18665C18.3318 1.64081 24.9445 1.05683 32.9057 1.40027C48.8261 2.08714 70.0273 6.4762 95.041 14.1321C145.061 29.4418 210.224 57.7843 278.664 95.5349Z" stroke="black"/>
</svg>
