<svg width="95" height="96" viewBox="0 0 95 96" fill="none" xmlns="http://www.w3.org/2000/svg">
<path d="M71.2723 71.5925C84.3766 58.4829 84.3766 37.2281 71.2723 24.1185C58.1679 11.0089 36.9216 11.0089 23.8173 24.1185C10.713 37.228 10.713 58.4829 23.8173 71.5925C36.9216 84.7021 58.1679 84.7021 71.2723 71.5925Z" fill="#B9FF66"/>
<path d="M47.5386 82.2732C28.5874 82.2732 13.1211 66.8399 13.1211 47.8419C13.1211 28.8832 28.5483 13.4106 47.5386 13.4106C66.5289 13.4106 81.956 28.844 81.956 47.8419C81.956 66.8007 66.5289 82.2732 47.5386 82.2732ZM47.5386 15.1342C29.5271 15.1342 14.8439 29.7841 14.8439 47.8419C14.8439 65.8606 29.488 80.5497 47.5386 80.5497C65.55 80.5497 80.2332 65.8998 80.2332 47.8419C80.2332 29.8233 65.5891 15.1342 47.5386 15.1342Z" fill="#B9FF66"/>
<path d="M56.6221 51.1713C54.7427 51.1713 53.0982 52.0723 52.0018 53.4824L40.6859 49.0561C40.6859 48.8994 40.7251 48.7819 40.7251 48.6252C40.7251 48.351 40.686 48.0768 40.6468 47.8026L52.2367 42.4362C53.2939 43.6505 54.8601 44.4339 56.6221 44.4731C59.8328 44.4731 62.4954 41.8486 62.4954 38.5974C62.4954 35.3462 59.872 32.6826 56.6221 32.6826C53.4114 32.6826 50.7488 35.3071 50.7488 38.5583C50.7488 38.8325 50.788 39.1067 50.8272 39.3809L39.2372 44.7473C38.18 43.533 36.6138 42.7496 34.8518 42.7104C31.6411 42.7104 28.9785 45.3348 28.9785 48.586C28.9785 51.8372 31.6019 54.5009 34.8518 54.5009C36.7313 54.5009 38.3758 53.5999 39.4721 52.1898L50.788 56.6161C50.788 56.7728 50.7488 56.8903 50.7488 57.047C50.7488 60.2982 53.3722 62.9618 56.6221 62.9618C59.8328 62.9618 62.4954 60.3373 62.4954 57.0861C62.4562 53.8349 59.8328 51.2105 56.6221 51.1713Z" fill="black"/>
</svg>
